<svg xmlns="http://www.w3.org/2000/svg" viewBox="0 0 275.48 143.16"><defs><style>.cls-1{fill:#fff;}</style></defs><g id="Layer_2" data-name="Layer 2"><g id="Layer_1-2" data-name="Layer 1"><path class="cls-1" d="M2.71,122.68h8.83a12.62,12.62,0,0,1,5.74,1.26,9.3,9.3,0,0,1,3.89,3.55,10.76,10.76,0,0,1,0,10.58,9.3,9.3,0,0,1-3.89,3.55,12.62,12.62,0,0,1-5.74,1.26H2.71Zm8.66,17a8.49,8.49,0,0,0,3.9-.85,6,6,0,0,0,2.6-2.42,7.78,7.78,0,0,0,0-7.3,6.09,6.09,0,0,0-2.6-2.42,8.49,8.49,0,0,0-3.9-.85H6.46V139.7Z" transform="translate(-2.71)"/><path class="cls-1" d="M41.68,139.73v3.15H26.54v-20.2H41.28v3.15h-11v5.25H40v3.08H30.29v5.57Z" transform="translate(-2.71)"/><path class="cls-1" d="M48,140.81c-1.56-1.56-2.34-3.81-2.34-6.73v-11.4h3.75v11.25q0,6,5.14,5.95t5.1-5.95V122.68h3.69v11.4c0,2.92-.77,5.17-2.32,6.73a8.71,8.71,0,0,1-6.5,2.35A8.77,8.77,0,0,1,48,140.81Z" transform="translate(-2.71)"/><path class="cls-1" d="M72.49,141.82a9.88,9.88,0,0,1-3.89-3.72,10.68,10.68,0,0,1,0-10.64,9.88,9.88,0,0,1,3.89-3.72,12.25,12.25,0,0,1,11.14,0,10,10,0,0,1,3.89,3.7,10.82,10.82,0,0,1,0,10.68,10,10,0,0,1-3.89,3.7,12.25,12.25,0,0,1-11.14,0Zm9.2-2.85a6.6,6.6,0,0,0,2.54-2.54,7.7,7.7,0,0,0,0-7.3,6.66,6.66,0,0,0-2.54-2.54,7.72,7.72,0,0,0-7.27,0,6.73,6.73,0,0,0-2.54,2.54,7.7,7.7,0,0,0,0,7.3A6.66,6.66,0,0,0,74.42,139a7.72,7.72,0,0,0,7.27,0Z" transform="translate(-2.71)"/><path class="cls-1" d="M110.86,122.68v20.2h-3.09L96.63,129.2v13.68H92.91v-20.2H96l11.13,13.68V122.68Z" transform="translate(-2.71)"/><path class="cls-1" d="M116.28,122.68h8.82a12.67,12.67,0,0,1,5.75,1.26,9.3,9.3,0,0,1,3.89,3.55,10.83,10.83,0,0,1,0,10.58,9.3,9.3,0,0,1-3.89,3.55,12.67,12.67,0,0,1-5.75,1.26h-8.82Zm8.65,17a8.53,8.53,0,0,0,3.91-.85,6,6,0,0,0,2.6-2.42,7.78,7.78,0,0,0,0-7.3,6.09,6.09,0,0,0-2.6-2.42,8.53,8.53,0,0,0-3.91-.85H120V139.7Z" transform="translate(-2.71)"/><path class="cls-1" d="M152.91,138.2H142.82l-2,4.68H137l9.09-20.2h3.69l9.11,20.2h-3.92Zm-1.24-2.94-3.81-8.83-3.78,8.83Z" transform="translate(-2.71)"/><path class="cls-1" d="M161.42,122.68h8.83a12.62,12.62,0,0,1,5.74,1.26,9.3,9.3,0,0,1,3.89,3.55,10.76,10.76,0,0,1,0,10.58,9.3,9.3,0,0,1-3.89,3.55,12.62,12.62,0,0,1-5.74,1.26h-8.83Zm8.66,17a8.49,8.49,0,0,0,3.9-.85,6,6,0,0,0,2.6-2.42,7.78,7.78,0,0,0,0-7.3,6.09,6.09,0,0,0-2.6-2.42,8.49,8.49,0,0,0-3.9-.85h-4.91V139.7Z" transform="translate(-2.71)"/><path class="cls-1" d="M185.25,122.68H189v20.2h-3.75Z" transform="translate(-2.71)"/><path class="cls-1" d="M208.24,132.55h3.55v8a11.35,11.35,0,0,1-3.64,1.9,14,14,0,0,1-4.27.66,11.4,11.4,0,0,1-5.56-1.34,9.93,9.93,0,0,1-3.9-3.7,10.82,10.82,0,0,1,0-10.68,10,10,0,0,1,3.91-3.7,11.57,11.57,0,0,1,5.61-1.34,12.26,12.26,0,0,1,4.62.83,9.24,9.24,0,0,1,3.49,2.45L209.68,128a7.58,7.58,0,0,0-5.57-2.31,7.83,7.83,0,0,0-3.79.9,6.48,6.48,0,0,0-2.6,2.51,7.28,7.28,0,0,0-.93,3.69,7.11,7.11,0,0,0,.93,3.63,6.68,6.68,0,0,0,2.6,2.54,7.57,7.57,0,0,0,3.76.93,8.16,8.16,0,0,0,4.16-1Z" transform="translate(-2.71)"/><path class="cls-1" d="M216.72,122.68h3.75v20.2h-3.75Z" transform="translate(-2.71)"/><path class="cls-1" d="M230,125.86h-6.7v-3.18h17.14v3.18h-6.69v17H230Z" transform="translate(-2.71)"/><path class="cls-1" d="M255.37,138.2H245.28l-2,4.68h-3.87l9.09-20.2h3.69l9.11,20.2h-3.92Zm-1.24-2.94-3.81-8.83-3.78,8.83Z" transform="translate(-2.71)"/><path class="cls-1" d="M263.88,122.68h3.75v17h10.56v3.18H263.88Z" transform="translate(-2.71)"/><path class="cls-1" d="M233.88,71.46a1.11,1.11,0,0,1,.48,2.12c-13.46,6.38-54.29,24.9-72,23.64a44.33,44.33,0,0,1-40.27-25.76Z" transform="translate(-2.71)"/><path class="cls-1" d="M186.2,15.5a44.35,44.35,0,0,0-64.11,56H36.76A3.24,3.24,0,0,1,37,70.33a2.66,2.66,0,0,1,1-1.15C56.54,56.67,74.16,42.79,91.37,28.55,106.93,15.67,121.78,3.8,142.66.6a50.8,50.8,0,0,1,7.79-.6c16.77,0,29.11,7.67,36.66,14.31A.75.75,0,0,1,186.2,15.5Z" transform="translate(-2.71)"/></g></g></svg>