<svg xmlns="http://www.w3.org/2000/svg" style="fill: white;" viewBox="0 0 392.85 40.52"><g id="Layer_2" data-name="Layer 2"><g id="Layer_1-2" data-name="Layer 1"><path d="M134.7,27.69c.17,9.92-5.88,20-19.61,20H99.67V8.41h15.42C128.54,8.41,134.53,18,134.7,27.69ZM107,40.52h8.08c8.91,0,12.44-6.5,12.27-12.89-.17-6.11-3.76-12.22-12.27-12.22H107Z" transform="translate(0 -7.96)"/><path d="M168.83,47.64H139.47V8.41h29.36v7.17h-22v9h21.24v6.9H146.81v8.85h22Z" transform="translate(0 -7.96)"/><path d="M209,8.46V30.94c0,11.6-7.12,17.54-17,17.54-9.41,0-17.43-5.72-17.43-17.54V8.46h7.34V30.94c0,7.06,4,10.81,10.15,10.81s9.58-4.09,9.58-10.81V8.46Z" transform="translate(0 -7.96)"/><path d="M226.34,45.48a19.26,19.26,0,0,1-7.48-7.2A19.68,19.68,0,0,1,216.14,28a19.67,19.67,0,0,1,2.72-10.25,19.21,19.21,0,0,1,7.48-7.21,23.21,23.21,0,0,1,21.35,0,19.16,19.16,0,0,1,7.46,7.18A19.89,19.89,0,0,1,257.84,28a20,20,0,0,1-2.69,10.29,19.2,19.2,0,0,1-7.46,7.17,23.14,23.14,0,0,1-21.35,0Zm18.47-4.34a14.39,14.39,0,0,0,5.43-5.41,15.12,15.12,0,0,0,2-7.71,15.05,15.05,0,0,0-2-7.7,14.39,14.39,0,0,0-5.43-5.41A15.42,15.42,0,0,0,237,13a15.74,15.74,0,0,0-7.82,2,14.34,14.34,0,0,0-5.49,5.41,15.15,15.15,0,0,0-2,7.7,15.22,15.22,0,0,0,2,7.71,14.34,14.34,0,0,0,5.49,5.41,15.74,15.74,0,0,0,7.82,2A15.42,15.42,0,0,0,244.81,41.14Z" transform="translate(0 -7.96)"/><path d="M300.15,8.41V47.64h-4.59L272,18.38V47.64h-5.61V8.41H271l23.54,29.25V8.41Z" transform="translate(0 -7.96)"/><path d="M311.92,8.41h16.54a24,24,0,0,1,11,2.46A18.2,18.2,0,0,1,347,17.79,19.6,19.6,0,0,1,349.64,28,19.6,19.6,0,0,1,347,38.25a18.14,18.14,0,0,1-7.48,6.92,23.87,23.87,0,0,1-11,2.47H311.92Zm16.2,34.35a18.06,18.06,0,0,0,8.38-1.85,13.38,13.38,0,0,0,5.58-5.18A15,15,0,0,0,344,28a15,15,0,0,0-2-7.7,13.41,13.41,0,0,0-5.58-5.19,18.18,18.18,0,0,0-8.38-1.85H317.53V42.76Z" transform="translate(0 -7.96)"/><path d="M382.65,37.83H361.8l-4.31,9.81h-5.77L369.48,8.41H375l17.82,39.23H387Zm-2-4.48-8.46-19.23-8.46,19.23Z" transform="translate(0 -7.96)"/><path d="M79.53,37.22a.45.45,0,0,1,.2.86c-5.43,2.57-21.91,10-29.05,9.53A17.87,17.87,0,0,1,34.43,37.22Z" transform="translate(0 -7.96)"/><path d="M60.3,14.64A17.89,17.89,0,0,0,34.43,37.22H0a1.32,1.32,0,0,1,.11-.45,1.14,1.14,0,0,1,.4-.47C8,31.25,15.09,25.65,22,19.91c6.28-5.2,12.27-10,20.7-11.28a20.65,20.65,0,0,1,3.14-.24,22.25,22.25,0,0,1,14.79,5.77A.3.3,0,0,1,60.3,14.64Z" transform="translate(0 -7.96)"/></g></g></svg>