<svg id="Layer_1" data-name="Layer 1" xmlns="http://www.w3.org/2000/svg" viewBox="0 0 2314 1308"><defs><style>.cls-1{opacity:0.26;}.cls-2{fill:none;stroke:#fff;stroke-miterlimit:10;}.cls-3{fill:#fff;}.cls-4{fill:#fc0;}</style></defs><title>&amp;amp;text</title><g class="cls-1"><path class="cls-2" d="M158.46,185q7.74,10.14,7.75,25,0,21-16.3,32.26t-47.54,11.29H19.83V94h78q29.19,0,44.8,11.17t15.62,30.33A38.39,38.39,0,0,1,137,170.56Q150.71,174.9,158.46,185ZM56.54,121.77v37.62H93.25q13.68,0,20.75-4.79t7.07-14.14q0-9.35-7.07-14t-20.75-4.67ZM121.64,221q7.39-4.8,7.41-14.82,0-19.84-29.42-19.84H56.54v39.44H99.63Q114.23,225.73,121.64,221Z"/><path class="cls-2" d="M316.69,253.55l-30.78-44.46h-34v44.46H215V94h69.09q21.2,0,36.82,7.07t24,20.06q8.43,13,8.44,30.78t-8.55,30.67q-8.55,12.89-24.28,19.72l35.79,51.3Zm-9.35-122.32Q298.67,124,282,124.05H251.94v55.63H282q16.65,0,25.31-7.3T316,151.86Q316,138.42,307.34,131.23Z"/><path class="cls-2" d="M513.68,99.88a60.91,60.91,0,0,1,25.53,25.53q9.12,16.89,9.12,40.82v87.32H511.4v-38.3h-73v38.3H402V166.23q0-23.94,9.12-40.82a60.91,60.91,0,0,1,25.53-25.53q16.42-8.67,38.54-8.67T513.68,99.88Zm-2.28,85.73v-22.8q0-19.84-9.81-30t-26.67-10.14q-17.1,0-26.79,10.14t-9.69,30v22.8Z"/><path class="cls-2" d="M734.61,109.11q16,17.91,16,51v93.48H713.63V161.21q0-19.15-9-28.84t-25-9.69q-16.87,0-27,10.37T642.5,163.72v89.83H605.56V94h35.8v19.38A52.28,52.28,0,0,1,661.88,96.8q12.3-5.58,28.27-5.59Q718.65,91.21,734.61,109.11Z"/><path class="cls-2" d="M807.79,94H880.3q26,0,45.94,9.92a74.29,74.29,0,0,1,31,27.93q11.06,18,11.06,41.95T957.25,215.7a74.29,74.29,0,0,1-31,27.93q-19.95,9.92-45.94,9.92H807.79Zm70.68,129.28q23.94,0,38.19-13.34t14.25-36.14q0-22.8-14.25-36.14t-38.19-13.34H844.73v99Z"/><path class="cls-2" d="M1070.45,123.59V223.91H1098v29.64H1005.7V223.91h27.81V123.59H1005.7V94H1098v29.64Z"/><path class="cls-2" d="M1275.65,109.11q15.94,17.91,16,51v93.48h-36.94V161.21q0-19.15-9-28.84t-25-9.69q-16.87,0-27,10.37t-10.14,30.67v89.83H1146.6V94h35.79v19.38a52.39,52.39,0,0,1,20.53-16.53q12.3-5.58,28.27-5.59Q1259.69,91.21,1275.65,109.11Z"/><path class="cls-2" d="M1456.68,171.24h33.74v82.31H1462.6V244q-16.63,12.32-42.86,12.32a86.88,86.88,0,0,1-40.58-9.58,72.62,72.62,0,0,1-29.42-27.93q-10.93-18.34-10.94-43.66,0-24.39,11.29-43.44a78.9,78.9,0,0,1,31.35-29.75q20.05-10.71,45.14-10.72,21,0,38.08,7.07a75.57,75.57,0,0,1,28.72,20.52l-23.71,21.89q-17.1-18-41.27-18-15.27,0-27.13,6.5a46.2,46.2,0,0,0-18.47,18.35q-6.61,11.86-6.61,27.36,0,16.2,6.5,27.59a43.15,43.15,0,0,0,17.44,17.21,50.21,50.21,0,0,0,23.94,5.82q19.38,0,32.61-10.95Z"/><path class="cls-2" d="M1668,256.29l-19.15-17.79q-22.8,17.79-53.35,17.79a83.23,83.23,0,0,1-31.24-5.59q-13.9-5.58-21.77-15.62a35.59,35.59,0,0,1-7.87-22.57A42.83,42.83,0,0,1,1543,186.4q8.33-11.28,26.79-21.54-8.65-8.9-12.54-17a38.39,38.39,0,0,1-3.87-16.76,35.2,35.2,0,0,1,6.15-20.52A40,40,0,0,1,1577,96.8q11.28-4.9,26.1-4.9,20.75,0,33.29,9.92t12.54,26.79a34.79,34.79,0,0,1-7.41,21.88q-7.41,9.58-23.83,18.47l29.19,27.13a104,104,0,0,0,8-24.85l28.5,8.89q-4.57,21.21-14.59,36.26l18.69,17.32Zm-40.13-37.17-38.53-36q-10.72,6.15-15.27,12.08a21.45,21.45,0,0,0-4.56,13.45q0,8.9,7.75,14.37t20.75,5.47A50.42,50.42,0,0,0,1627.9,219.12Zm-37.5-98.95a13.34,13.34,0,0,0-4.68,10.49,17.33,17.33,0,0,0,2.51,9q2.51,4.23,9.81,11.29,11.63-6.15,16.18-11.06a15.3,15.3,0,0,0,4.56-10.6,12.21,12.21,0,0,0-4.1-9.58q-4.11-3.63-11.63-3.64Q1595.07,116.07,1590.4,120.17Z"/></g><g class="cls-1"><path class="cls-2" d="M148.39,1028.82q16,17.9,16,51v93.48H127.41v-92.34q0-19.15-9-28.85t-25-9.69q-16.87,0-27,10.38t-10.14,30.66v89.84H19.34v-159.6h35.8V1033a52.2,52.2,0,0,1,20.52-16.53q12.3-5.6,28.27-5.59Q132.43,1010.92,148.39,1028.82Z"/><path class="cls-2" d="M352,1159.58q-11.4,7.76-28.61,12.08a149.48,149.48,0,0,1-36.6,4.33q-24.16,0-41-6t-25.53-16.87a38.5,38.5,0,0,1-8.67-24.74,37.6,37.6,0,0,1,7.07-22.57A41.9,41.9,0,0,1,238,1091.18a36.48,36.48,0,0,1-14.48-13.68,37.34,37.34,0,0,1-5.13-19.38,38.81,38.81,0,0,1,8-23.72q8-10.71,24.17-17.1t39.67-6.38a149,149,0,0,1,30.33,3.08,113.14,113.14,0,0,1,25.76,8.32L336,1050.59a103.86,103.86,0,0,0-44.46-9.8q-17.79,0-26.79,5.36t-9,14.47q0,8.45,6,12.89t18.35,4.44h43.55v29.19H277.89q-13.9,0-21.43,4.78a15.5,15.5,0,0,0-7.53,13.91q0,9.59,9.69,14.94t29.76,5.35a109.48,109.48,0,0,0,28.27-3.76,75.52,75.52,0,0,0,23.94-10.6Z"/><path class="cls-2" d="M509.31,1058.34a122.51,122.51,0,0,0-44-15.27v130.19H428.37V1043.07a124.61,124.61,0,0,0-44.23,15.27l-12.54-27.58a136.07,136.07,0,0,1,35.56-14.82,154.82,154.82,0,0,1,39.45-5,156.92,156.92,0,0,1,39.78,5,132.22,132.22,0,0,1,35.46,14.82Z"/><path class="cls-2" d="M796.58,1013.66v94.16q0,33.29-18,50.73T727.5,1176q-16.41,0-29.3-4.79a54.66,54.66,0,0,1-21.09-13.45,56.9,56.9,0,0,1-21.2,13.45,81.93,81.93,0,0,1-29,4.79q-33.06,0-51.07-17.44t-18-50.73v-94.16h36.94v93q0,19.38,8,28.61t23.71,9.24q32.14,0,32.15-37.85v-93h36.93v93q0,37.85,32.38,37.85,31.45,0,31.46-37.85v-93Z"/><path class="cls-2" d="M886.3,1165.28a79.64,79.64,0,0,1-31.24-29.53q-11.28-18.81-11.28-42.29t11.28-42.3a79.54,79.54,0,0,1,31.24-29.52q20-10.73,44.8-10.72t44.69,10.72a80.63,80.63,0,0,1,31.24,29.52q11.4,18.81,11.4,42.3t-11.4,42.29a80.72,80.72,0,0,1-31.24,29.53Q956,1176,931.1,1176T886.3,1165.28ZM956.64,1138a46.57,46.57,0,0,0,17.9-18.13,57,57,0,0,0,0-52.89,46.63,46.63,0,0,0-17.9-18.13,53.41,53.41,0,0,0-51.07,0,46.56,46.56,0,0,0-17.9,18.13,57,57,0,0,0,0,52.89,46.5,46.5,0,0,0,17.9,18.13,53.41,53.41,0,0,0,51.07,0Z"/><path class="cls-2" d="M1168.68,1173.26l-30.78-44.46h-34v44.46H1067v-159.6h69.08q21.21,0,36.82,7.06t24.06,20.07q8.43,13,8.43,30.78t-8.55,30.66q-8.55,12.88-24.28,19.73l35.8,51.3Zm-9.35-122.33q-8.67-7.17-25.31-7.18h-30.1v55.63H1134q16.63,0,25.31-7.29t8.66-20.52Q1168,1058.11,1159.33,1050.93Z"/><path class="cls-2" d="M1313.45,1110.56,1292,1132.9v40.36h-36.71v-159.6H1292v74.55l70.68-74.55h41l-66.12,71.13,70,88.47h-43.09Z"/><path class="cls-2" d="M1457.21,1170.86q-17.68-5.13-28.39-13.34l12.54-27.81a85.19,85.19,0,0,0,24.4,12.08,91.57,91.57,0,0,0,28.27,4.56q15.73,0,23.25-4.67t7.53-12.43a11.86,11.86,0,0,0-4.45-9.46,33.59,33.59,0,0,0-11.4-6q-7-2.28-18.81-5a258.62,258.62,0,0,1-29.87-8.66,48.61,48.61,0,0,1-20-13.91q-8.32-9.57-8.32-25.54a44.38,44.38,0,0,1,7.53-25.19q7.51-11.28,22.68-17.9t37-6.61a122.83,122.83,0,0,1,29.87,3.65,88.23,88.23,0,0,1,25.54,10.49l-11.4,28q-22.12-12.54-44.24-12.54-15.49,0-22.91,5t-7.41,13.22q0,8.21,8.55,12.2t26.11,7.86a260.17,260.17,0,0,1,29.86,8.67,49.46,49.46,0,0,1,20,13.68q8.32,9.35,8.33,25.31a43.57,43.57,0,0,1-7.64,25q-7.65,11.3-22.92,17.9T1493.8,1176A130.48,130.48,0,0,1,1457.21,1170.86Z"/></g><g class="cls-1"><path class="cls-2" d="M150.47,929.65q-11.4,7.76-28.61,12.08a149.45,149.45,0,0,1-36.59,4.34q-24.18,0-41-6.05T18.69,923.15A38.47,38.47,0,0,1,10,898.41a37.62,37.62,0,0,1,7.06-22.57,42,42,0,0,1,19.38-14.59A36.38,36.38,0,0,1,22,847.57a37.29,37.29,0,0,1-5.13-19.38,38.72,38.72,0,0,1,8-23.71q8-10.71,24.16-17.1T88.69,781A148.87,148.87,0,0,1,119,784.07a112.81,112.81,0,0,1,25.76,8.32l-10.26,28.28a103.66,103.66,0,0,0-44.46-9.81q-17.77,0-26.79,5.36t-9,14.48q0,8.43,6,12.88c4,3,10.15,4.45,18.35,4.45H122.2v29.18H76.37q-13.91,0-21.43,4.79a15.5,15.5,0,0,0-7.52,13.91q0,9.57,9.69,14.93t29.75,5.36a109.86,109.86,0,0,0,28.27-3.76,75.33,75.33,0,0,0,23.94-10.61Z"/><path class="cls-2" d="M208.73,940.94Q191,935.81,180.34,927.6l12.54-27.82a85,85,0,0,0,24.4,12.09,91.57,91.57,0,0,0,28.27,4.56q15.74,0,23.25-4.68t7.53-12.42a11.88,11.88,0,0,0-4.45-9.47,33.77,33.77,0,0,0-11.4-6q-7-2.28-18.81-5a260.41,260.41,0,0,1-29.87-8.67,48.43,48.43,0,0,1-20-13.91q-8.32-9.57-8.32-25.53a44.43,44.43,0,0,1,7.53-25.2q7.51-11.28,22.68-17.89t37-6.62a122.83,122.83,0,0,1,29.87,3.65,88.51,88.51,0,0,1,25.54,10.49l-11.4,28q-22.12-12.52-44.24-12.54-15.5,0-22.91,5t-7.41,13.22q0,8.22,8.55,12.2t26.11,7.87a262.45,262.45,0,0,1,29.86,8.66,49.46,49.46,0,0,1,19.95,13.68q8.32,9.36,8.33,25.31a43.62,43.62,0,0,1-7.64,25q-7.65,11.28-22.92,17.89t-37.16,6.62A130.48,130.48,0,0,1,208.73,940.94Z"/><path class="cls-2" d="M473.77,828.42a122.55,122.55,0,0,0-44-15.28V943.33H392.83V813.14a124.69,124.69,0,0,0-44.23,15.28l-12.54-27.59A136.82,136.82,0,0,1,371.63,786a155.19,155.19,0,0,1,39.44-5,157.51,157.51,0,0,1,39.79,5,132.8,132.8,0,0,1,35.45,14.82Z"/><path class="cls-2" d="M625.39,943.33l-30.78-44.46h-34v44.46H523.7V783.73h69.09q21.19,0,36.82,7.07t24,20.06q8.45,13,8.44,30.78t-8.55,30.67Q645,885.2,629.27,892l35.79,51.3ZM616,821q-8.65-7.18-25.3-7.18h-30.1v55.63h30.1q16.63,0,25.3-7.3t8.67-20.52Q624.71,828.2,616,821Z"/><path class="cls-2" d="M822.38,789.66a61,61,0,0,1,25.54,25.53Q857,832.07,857,856v87.32H820.1V905h-73v38.3H710.66V856q0-23.94,9.12-40.82a60.88,60.88,0,0,1,25.54-25.53Q761.73,781,783.85,781T822.38,789.66Zm-2.28,85.73v-22.8q0-19.85-9.8-30t-26.68-10.14q-17.1,0-26.79,10.14t-9.69,30v22.8Z"/><path class="cls-2" d="M1028.26,828.42a122.55,122.55,0,0,0-44-15.28V943.33H947.32V813.14a124.69,124.69,0,0,0-44.23,15.28l-12.54-27.59A136.68,136.68,0,0,1,926.12,786a155.19,155.19,0,0,1,39.44-5,157.51,157.51,0,0,1,39.79,5,132.8,132.8,0,0,1,35.45,14.82Z"/><path class="cls-2" d="M1206.33,929.65q-11.4,7.76-28.62,12.08a149.33,149.33,0,0,1-36.59,4.34q-24.16,0-41-6.05t-25.54-16.87a38.53,38.53,0,0,1-8.66-24.74,37.63,37.63,0,0,1,7.07-22.57,42,42,0,0,1,19.38-14.59,36.34,36.34,0,0,1-14.48-13.68,37.29,37.29,0,0,1-5.13-19.38,38.78,38.78,0,0,1,8-23.71q8-10.71,24.17-17.1t39.67-6.39a149,149,0,0,1,30.33,3.08,113.14,113.14,0,0,1,25.76,8.32l-10.26,28.28a103.72,103.72,0,0,0-44.46-9.81q-17.79,0-26.79,5.36t-9,14.48q0,8.43,6.05,12.88t18.35,4.45h43.55v29.18h-45.83q-13.9,0-21.43,4.79a15.49,15.49,0,0,0-7.53,13.91q0,9.57,9.69,14.93t29.76,5.36a109.91,109.91,0,0,0,28.27-3.76,75.53,75.53,0,0,0,23.94-10.61ZM1149.56,737.9h38.3l-41.27,32.83h-27.81Z"/><path class="cls-2" d="M1353.16,861h33.74v82.31h-27.81v-9.58q-16.65,12.32-42.87,12.32a86.88,86.88,0,0,1-40.58-9.58,72.6,72.6,0,0,1-29.41-27.93q-10.95-18.34-11-43.66,0-24.39,11.29-43.44a78.83,78.83,0,0,1,31.35-29.75Q1298,781,1323.06,781q21,0,38.08,7.07a75.61,75.61,0,0,1,28.73,20.52l-23.71,21.89q-17.1-18-41.27-18-15.29,0-27.13,6.5a46.07,46.07,0,0,0-18.47,18.35q-6.61,11.87-6.61,27.36,0,16.19,6.49,27.59a43.17,43.17,0,0,0,17.45,17.21,50.16,50.16,0,0,0,23.94,5.82q19.37,0,32.6-10.95Z"/><path class="cls-2" d="M1496.57,813.37V913.69h27.59v29.64h-92.34V913.69h27.81V813.37h-27.81V783.73h92.34v29.64Z"/><path class="cls-2" d="M1683.07,789.66a60.93,60.93,0,0,1,25.54,25.53q9.11,16.88,9.12,40.82v87.32h-36.94V905h-73v38.3h-36.48V856q0-23.94,9.12-40.82A60.88,60.88,0,0,1,1606,789.66q16.41-8.67,38.53-8.67T1683.07,789.66Zm-2.28,85.73v-22.8q0-19.85-9.8-30t-26.68-10.14q-17.1,0-26.79,10.14t-9.69,30v22.8Z"/><path class="cls-2" d="M1790.8,940.94q-17.67-5.13-28.39-13.34L1775,899.78a85,85,0,0,0,24.4,12.09,91.62,91.62,0,0,0,28.27,4.56q15.74,0,23.26-4.68t7.52-12.42a11.9,11.9,0,0,0-4.44-9.47,34,34,0,0,0-11.4-6q-7-2.28-18.81-5a259.21,259.21,0,0,1-29.87-8.67,48.36,48.36,0,0,1-20-13.91q-8.33-9.57-8.32-25.53a44.42,44.42,0,0,1,7.52-25.2q7.53-11.28,22.69-17.89t37-6.62a122.75,122.75,0,0,1,29.86,3.65,88.51,88.51,0,0,1,25.54,10.49l-11.4,28q-22.12-12.52-44.23-12.54-15.51,0-22.92,5t-7.41,13.22q0,8.22,8.55,12.2t26.11,7.87a262.7,262.7,0,0,1,29.87,8.66,49.53,49.53,0,0,1,20,13.68q8.31,9.36,8.32,25.31a43.62,43.62,0,0,1-7.64,25q-7.63,11.28-22.91,17.89t-37.17,6.62A130.59,130.59,0,0,1,1790.8,940.94Z"/><path class="cls-2" d="M2063.83,946.07l-19.16-17.79q-22.8,17.79-53.35,17.79a83.22,83.22,0,0,1-31.23-5.59q-13.92-5.58-21.78-15.62a35.66,35.66,0,0,1-7.86-22.57,42.83,42.83,0,0,1,8.32-26.11q8.32-11.28,26.79-21.54-8.67-8.89-12.54-17a38.27,38.27,0,0,1-3.88-16.76,35.13,35.13,0,0,1,6.16-20.52,40,40,0,0,1,17.44-13.79q11.28-4.91,26.11-4.9,20.75,0,33.28,9.92t12.54,26.79a34.79,34.79,0,0,1-7.41,21.88q-7.41,9.59-23.82,18.47l29.18,27.13a103.09,103.09,0,0,0,8-24.85l28.5,8.89q-4.56,21.21-14.59,36.26l18.7,17.32ZM2023.7,908.9l-38.53-36Q1974.45,879,1969.89,885a21.51,21.51,0,0,0-4.56,13.45q0,8.9,7.75,14.37t20.75,5.47A50.47,50.47,0,0,0,2023.7,908.9ZM1986.19,810a13.35,13.35,0,0,0-4.67,10.49,17.24,17.24,0,0,0,2.51,9q2.51,4.23,9.8,11.29,11.63-6.15,16.19-11.06a15.3,15.3,0,0,0,4.56-10.6,12.21,12.21,0,0,0-4.11-9.58q-4.1-3.65-11.62-3.64C1993.52,805.85,1989.31,807.21,1986.19,810Z"/></g><g class="cls-1"><path class="cls-2" d="M245.61,567.6q15.72,16.53,15.73,47.76v98H224.4V616.5q0-16.86-8.78-25.42t-23.14-8.55q-15.73,0-25.08,9t-9.35,27.24V713.4H121.12V616.5q0-16.86-8.21-25.42t-22.34-8.55q-15.51,0-24.86,9t-9.34,27.24V713.4H19.43V553.8h35.8v19.61a48.31,48.31,0,0,1,19.38-16.53q12.08-5.8,27.81-5.81,16.42,0,28.73,6a43.41,43.41,0,0,1,18.92,17.44,53,53,0,0,1,21.55-17.44,71.81,71.81,0,0,1,30-6Q229.88,551.07,245.61,567.6Z"/><path class="cls-2" d="M351.05,705.42a79.45,79.45,0,0,1-31.23-29.52q-11.29-18.81-11.29-42.3t11.29-42.29a79.54,79.54,0,0,1,31.23-29.53q19.95-10.71,44.81-10.71t44.68,10.71a80.59,80.59,0,0,1,31.24,29.53q11.4,18.81,11.4,42.29t-11.4,42.3a80.49,80.49,0,0,1-31.24,29.52q-19.83,10.73-44.68,10.72T351.05,705.42Zm70.34-27.24a46.63,46.63,0,0,0,17.9-18.13,57,57,0,0,0,0-52.89A46.57,46.57,0,0,0,421.39,589a53.41,53.41,0,0,0-51.07,0,46.57,46.57,0,0,0-17.9,18.13,57,57,0,0,0,0,52.89,46.63,46.63,0,0,0,17.9,18.13,53.41,53.41,0,0,0,51.07,0Z"/><path class="cls-2" d="M645.74,598.49a122.53,122.53,0,0,0-44-15.27V713.4H564.8V583.22a124.67,124.67,0,0,0-44.23,15.27L508,570.9a136.82,136.82,0,0,1,35.57-14.82,155.18,155.18,0,0,1,39.44-5,157.5,157.5,0,0,1,39.79,5,132.8,132.8,0,0,1,35.45,14.82Z"/><path class="cls-2" d="M750.39,583.44V683.76H778V713.4H685.64V683.76h27.82V583.44H685.64V553.8H778v29.64Z"/><path class="cls-2" d="M857.89,705.42a79.45,79.45,0,0,1-31.23-29.52q-11.29-18.81-11.29-42.3t11.29-42.29a79.54,79.54,0,0,1,31.23-29.53q20-10.71,44.81-10.71t44.68,10.71a80.59,80.59,0,0,1,31.24,29.53Q990,610.12,990,633.6t-11.4,42.3a80.49,80.49,0,0,1-31.24,29.52q-19.83,10.73-44.68,10.72T857.89,705.42Zm70.34-27.24a46.63,46.63,0,0,0,17.9-18.13,57,57,0,0,0,0-52.89A46.57,46.57,0,0,0,928.23,589a53.41,53.41,0,0,0-51.07,0,46.57,46.57,0,0,0-17.9,18.13,57,57,0,0,0,0,52.89,46.63,46.63,0,0,0,17.9,18.13,53.41,53.41,0,0,0,51.07,0Z"/><path class="cls-2" d="M1167.63,569q16,17.89,16,50.95V713.4h-36.94V621.06q0-19.14-9-28.84t-25-9.69q-16.87,0-27,10.38t-10.14,30.66V713.4h-36.94V553.8h35.8v19.38a52.37,52.37,0,0,1,20.52-16.53q12.31-5.58,28.27-5.58Q1151.67,551.07,1167.63,569Z"/><path class="cls-2" d="M1363.48,716.14l-19.15-17.78q-22.8,17.77-53.35,17.78a83,83,0,0,1-31.24-5.59q-13.9-5.58-21.77-15.61a35.64,35.64,0,0,1-7.87-22.58,42.78,42.78,0,0,1,8.32-26.1q8.32-11.29,26.79-21.55-8.67-8.9-12.54-17A38.43,38.43,0,0,1,1248.8,591a35.2,35.2,0,0,1,6.15-20.52,40,40,0,0,1,17.44-13.8q11.29-4.89,26.11-4.9,20.74,0,33.29,9.92t12.54,26.79a34.81,34.81,0,0,1-7.41,21.89q-7.41,9.57-23.83,18.47L1342.28,656a104.27,104.27,0,0,0,8-24.85l28.5,8.89q-4.58,21.19-14.59,36.25l18.69,17.33ZM1323.35,679l-38.53-36q-10.72,6.16-15.28,12.09a21.47,21.47,0,0,0-4.56,13.45q0,8.89,7.76,14.36t20.74,5.47A50.49,50.49,0,0,0,1323.35,679Zm-37.5-99a13.34,13.34,0,0,0-4.68,10.49,17.37,17.37,0,0,0,2.51,9q2.5,4.22,9.8,11.28,11.64-6.15,16.19-11a15.34,15.34,0,0,0,4.56-10.61,12.2,12.2,0,0,0-4.1-9.57q-4.11-3.65-11.63-3.65Q1290.52,575.92,1285.85,580Z"/></g><g class="cls-1"><path class="cls-2" d="M19.65,323.88H92.16q26,0,45.94,9.91a74.37,74.37,0,0,1,31,27.94q11.05,18,11.06,41.95t-11.06,41.95a74.29,74.29,0,0,1-31,27.93q-19.95,9.92-45.94,9.92H19.65ZM90.33,453.15q23.94,0,38.19-13.34t14.25-36.13q0-22.8-14.25-36.14T90.33,354.2H56.59v98.95Z"/><path class="cls-2" d="M359.14,469.8q-11.4,7.76-28.61,12.08a149.45,149.45,0,0,1-36.59,4.33q-24.18,0-41-6T227.36,463.3a38.49,38.49,0,0,1-8.66-24.74A37.62,37.62,0,0,1,225.76,416a42,42,0,0,1,19.38-14.59,36.38,36.38,0,0,1-14.47-13.68,37.34,37.34,0,0,1-5.13-19.38,38.7,38.7,0,0,1,8-23.71q8-10.72,24.16-17.11t39.67-6.38a148.9,148.9,0,0,1,30.33,3.08,112.81,112.81,0,0,1,25.76,8.32l-10.26,28.27a103.79,103.79,0,0,0-44.46-9.8q-17.78,0-26.79,5.36t-9,14.48q0,8.43,6,12.88c4,3,10.15,4.44,18.35,4.44h43.55v29.19H285q-13.91,0-21.43,4.79a15.49,15.49,0,0,0-7.52,13.9q0,9.58,9.69,14.94t29.75,5.36a109.44,109.44,0,0,0,28.27-3.77A75.1,75.1,0,0,0,347.74,442Z"/><path class="cls-2" d="M417.4,481.08Q399.72,476,389,467.75l12.54-27.82A85.19,85.19,0,0,0,426,452a91.28,91.28,0,0,0,28.27,4.56q15.73,0,23.25-4.67T485,439.47a11.88,11.88,0,0,0-4.45-9.46,33.59,33.59,0,0,0-11.4-6q-7-2.28-18.81-5a258.62,258.62,0,0,1-29.87-8.66,48.52,48.52,0,0,1-20-13.91q-8.32-9.57-8.32-25.53a44.43,44.43,0,0,1,7.53-25.2q7.51-11.28,22.68-17.9t37-6.61a122.83,122.83,0,0,1,29.87,3.65,88.23,88.23,0,0,1,25.54,10.49l-11.4,28q-22.12-12.54-44.24-12.54-15.5,0-22.91,5T428.91,369q0,8.21,8.55,12.2t26.11,7.86a260.17,260.17,0,0,1,29.86,8.67,49.46,49.46,0,0,1,19.95,13.68q8.32,9.35,8.33,25.31a43.57,43.57,0,0,1-7.64,25q-7.65,11.3-22.92,17.9T454,486.21A130.48,130.48,0,0,1,417.4,481.08Z"/><path class="cls-2" d="M622.48,353.52V453.84h27.59v29.64H557.73V453.84h27.81V353.52H557.73V323.88h92.34v29.64Z"/><path class="cls-2" d="M805.33,401.17h33.75v82.31H811.26V473.9q-16.65,12.32-42.86,12.31a86.91,86.91,0,0,1-40.59-9.57,72.79,72.79,0,0,1-29.41-27.93Q687.47,430.35,687.46,405q0-24.39,11.28-43.43a78.89,78.89,0,0,1,31.35-29.75q20.07-10.73,45.15-10.72,21,0,38.07,7.07A75.39,75.39,0,0,1,842,348.73l-23.71,21.89q-17.1-18-41.27-18-15.27,0-27.13,6.5a46.22,46.22,0,0,0-18.47,18.36q-6.62,11.85-6.61,27.36,0,16.19,6.5,27.59a43.15,43.15,0,0,0,17.44,17.21,50.2,50.2,0,0,0,23.94,5.81q19.38,0,32.6-10.94Z"/><path class="cls-2" d="M1023.07,339q16,17.9,16,51v93.48H1002.1V391.14q0-19.15-9-28.85t-25-9.69q-16.89,0-27,10.38T931,393.65v89.83H894V323.88h35.8v19.38a52.2,52.2,0,0,1,20.52-16.53q12.31-5.6,28.27-5.59Q1007.11,321.14,1023.07,339Z"/><path class="cls-2" d="M1218.92,486.21l-19.15-17.78q-22.8,17.79-53.35,17.78a83.27,83.27,0,0,1-31.24-5.58q-13.9-5.6-21.77-15.62a35.61,35.61,0,0,1-7.87-22.57,42.8,42.8,0,0,1,8.32-26.11q8.33-11.28,26.79-21.54-8.65-8.9-12.54-17a38.39,38.39,0,0,1-3.87-16.76,35.2,35.2,0,0,1,6.15-20.52,39.93,39.93,0,0,1,17.45-13.79q11.28-4.91,26.1-4.9,20.74,0,33.29,9.91t12.54,26.79a34.79,34.79,0,0,1-7.41,21.89q-7.41,9.58-23.83,18.47L1197.72,426a104.13,104.13,0,0,0,8-24.85l28.5,8.89q-4.56,21.21-14.59,36.25l18.69,17.33Zm-40.13-37.16-38.53-36q-10.71,6.17-15.27,12.09a21.41,21.41,0,0,0-4.56,13.45q0,8.9,7.75,14.37t20.75,5.47A50.49,50.49,0,0,0,1178.79,449.05Zm-37.5-98.95a13.31,13.31,0,0,0-4.68,10.48,17.34,17.34,0,0,0,2.51,9q2.51,4.23,9.81,11.29,11.63-6.17,16.18-11.06a15.32,15.32,0,0,0,4.56-10.6,12.19,12.19,0,0,0-4.1-9.58q-4.11-3.64-11.63-3.65Q1146,346,1141.29,350.1Z"/></g><path class="cls-3" d="M136.2,184.36q6.45,8.46,6.46,20.8,0,17.49-13.59,26.89t-39.61,9.4H20.68v-133h65q24.32,0,37.33,9.31T136,143a32,32,0,0,1-17.67,29.26A35.15,35.15,0,0,1,136.2,184.36ZM51.27,131.63V163H81.86q11.4,0,17.29-4T105,147.21q0-7.78-5.89-11.68t-17.29-3.9Zm54.24,82.65q6.18-4,6.18-12.35,0-16.53-24.51-16.53H51.27v32.87H87.18Q99.33,218.27,105.51,214.28Z"/><path class="cls-3" d="M206.59,141.51a53.32,53.32,0,0,1,20.81-3.8v27.36c-3.3-.25-5.51-.38-6.65-.38q-12.74,0-19.95,7.13t-7.22,21.37v48.26H163.94V139.23h28.31v13.49A33,33,0,0,1,206.59,141.51Z"/><path class="cls-3" d="M347.86,139.23V241.45H319.55V229.67q-11,13.31-31.92,13.3a53,53,0,0,1-26.12-6.46,46.2,46.2,0,0,1-18.34-18.43q-6.64-12-6.65-27.74t6.65-27.74a46.27,46.27,0,0,1,18.34-18.43,53.12,53.12,0,0,1,26.12-6.46q19.58,0,30.59,12.35V139.23ZM311.38,211q7.41-7.69,7.41-20.62t-7.41-20.61a24.78,24.78,0,0,0-18.62-7.7q-11.4,0-18.81,7.7t-7.41,20.61q0,12.93,7.41,20.62t18.81,7.69A24.77,24.77,0,0,0,311.38,211Z"/><path class="cls-3" d="M468,149.11q11.69,11.4,11.69,33.82v58.52H450.08v-54q0-12.15-5.32-18.14t-15.39-6q-11.22,0-17.86,6.94t-6.65,20.61v50.54H375.22V139.23h28.31v12a39.25,39.25,0,0,1,14.63-10,51,51,0,0,1,19.19-3.52Q456.34,137.71,468,149.11Z"/><path class="cls-3" d="M611.77,100.47v141H583.46V229.67q-11,13.31-31.92,13.3a53.05,53.05,0,0,1-26.13-6.46,46.18,46.18,0,0,1-18.33-18.43q-6.66-12-6.65-27.74t6.65-27.74a46.24,46.24,0,0,1,18.33-18.43,53.16,53.16,0,0,1,26.13-6.46q19.56,0,30.59,12.35V100.47ZM575.29,211q7.41-7.69,7.41-20.62t-7.41-20.61a24.78,24.78,0,0,0-18.62-7.7q-11.4,0-18.81,7.7t-7.41,20.61q0,12.93,7.41,20.62t18.81,7.69A24.77,24.77,0,0,0,575.29,211Z"/><path class="cls-3" d="M640.64,120.23a16.09,16.09,0,0,1,0-23.56q5.13-4.74,13.3-4.75t13.3,4.56a14.62,14.62,0,0,1,5.13,11.4,16.14,16.14,0,0,1-5.13,12.26q-5.13,4.85-13.3,4.84T640.64,120.23Zm-1.52,19h29.64V241.45H639.12Z"/><path class="cls-3" d="M789.13,149.11q11.68,11.4,11.68,33.82v58.52H771.17v-54q0-12.15-5.32-18.14t-15.39-6q-11.21,0-17.86,6.94T726,190.91v50.54H696.31V139.23h28.31v12a39.42,39.42,0,0,1,14.63-10,51.08,51.08,0,0,1,19.19-3.52Q777.45,137.71,789.13,149.11Z"/><path class="cls-3" d="M934.19,139.23v85.12q0,28.13-14.63,41.8t-42.75,13.68a106.8,106.8,0,0,1-28.12-3.61q-13.31-3.6-22-10.45l11.78-21.28A48.43,48.43,0,0,0,854.77,253a65,65,0,0,0,19.76,3.13q15.39,0,22.71-6.93t7.31-21v-4.37q-11.59,12.74-32.3,12.73a54.19,54.19,0,0,1-25.74-6.17A47,47,0,0,1,828,213q-6.84-11.2-6.84-25.84A48.63,48.63,0,0,1,828,161.27a47.11,47.11,0,0,1,18.53-17.38,54.2,54.2,0,0,1,25.74-6.18q22.23,0,33.82,14.63V139.23Zm-36.76,66q7.5-6.93,7.5-18.15T897.43,169Q889.92,162,878.14,162T858.76,169q-7.6,6.93-7.6,18.14t7.6,18.15q7.61,6.93,19.38,6.93T897.43,205.26Z"/><path class="cls-4" d="M1066.05,243.73l-16-14.82q-19,14.82-44.46,14.82a69.37,69.37,0,0,1-26-4.65q-11.6-4.65-18.14-13a29.7,29.7,0,0,1-6.56-18.81,35.63,35.63,0,0,1,6.94-21.75q6.93-9.41,22.32-18a54.89,54.89,0,0,1-10.45-14.15,32,32,0,0,1-3.23-14,29.3,29.3,0,0,1,5.13-17.1,33.25,33.25,0,0,1,14.54-11.49,54.23,54.23,0,0,1,21.75-4.09q17.29,0,27.74,8.27t10.45,22.32a29,29,0,0,1-6.17,18.24q-6.18,8-19.86,15.39l24.32,22.61a86.49,86.49,0,0,0,6.65-20.71l23.75,7.41q-3.79,17.67-12.16,30.21l15.58,14.44Zm-33.44-31-32.11-30q-8.93,5.13-12.73,10.07A17.94,17.94,0,0,0,984,204q0,7.41,6.46,12t17.29,4.56A42,42,0,0,0,1032.61,212.76Zm-31.25-82.46a11.11,11.11,0,0,0-3.9,8.74,14.48,14.48,0,0,0,2.09,7.51q2.09,3.52,8.17,9.4,9.69-5.13,13.49-9.21a12.78,12.78,0,0,0,3.8-8.84,10.18,10.18,0,0,0-3.42-8q-3.42-3-9.69-3Q1005.26,126.88,1001.36,130.3Z"/><path class="cls-4" d="M127.73,1040.79Q141,1055.72,141,1083.26v77.9H110.25v-77q0-16-7.51-24t-20.8-8.08q-14.07,0-22.52,8.65T51,1086.3v74.86H20.19v-133H50v16.15a43.47,43.47,0,0,1,17.1-13.77,56.34,56.34,0,0,1,23.55-4.66Q114.43,1025.88,127.73,1040.79Z"/><path class="cls-4" d="M235,1136.56a34.38,34.38,0,0,0,11.49-7.51l15.77,17.1q-14.43,16.53-42.18,16.53-17.28,0-30.59-6.74A49.56,49.56,0,0,1,169,1137.22a51.58,51.58,0,0,1-7.22-27.17,52.23,52.23,0,0,1,7.13-27.07,49.8,49.8,0,0,1,19.57-18.81,57.8,57.8,0,0,1,28-6.75,57.09,57.09,0,0,1,26.6,6.18,47.49,47.49,0,0,1,19.1,17.86q7.13,11.68,7.12,27.64l-75.62,14.63a22.67,22.67,0,0,0,10.17,11.4q6.93,3.81,17,3.8A39.36,39.36,0,0,0,235,1136.56Zm-36.77-49.5q-7,7.23-7.41,20l49.78-9.69a22.31,22.31,0,0,0-8.55-12.73,25.6,25.6,0,0,0-15.58-4.75Q205.25,1079.84,198.21,1087.06Z"/><path class="cls-4" d="M350.78,1156.22a30.39,30.39,0,0,1-10.73,4.85,53.88,53.88,0,0,1-13.21,1.61q-18.43,0-28.31-9.31T288.65,1126v-89.68h29.64v24.89h25.27V1084H318.29v41.61q0,6.46,3.23,10t9.31,3.51a20.36,20.36,0,0,0,12.16-3.8Z"/><path class="cls-4" d="M529.19,1058.94v56.43q0,22.62-12.35,35t-35.15,12.35a51.57,51.57,0,0,1-19.47-3.42,32.83,32.83,0,0,1-14.16-11,33,33,0,0,1-14.06,11,52,52,0,0,1-19.76,3.42q-23,0-35.15-12.35t-12.16-35v-56.43h29.64v54.15q0,12.73,4.37,18.72t13.68,6q9.5,0,14.06-6.08t4.56-18.62v-54.15h29.64v54.15q0,12.54,4.56,18.62t14.06,6.08q9.31,0,13.68-6t4.37-18.72v-54.15Z"/><path class="cls-4" d="M575.45,1155.94a50.14,50.14,0,0,1-20-18.72,54.73,54.73,0,0,1,0-54.34,50,50,0,0,1,20-18.71,65.37,65.37,0,0,1,57.86,0,50.33,50.33,0,0,1,20,18.71,54.73,54.73,0,0,1,0,54.34,50.42,50.42,0,0,1-20,18.72,65.46,65.46,0,0,1-57.86,0Zm47.69-25.27q7.32-7.7,7.32-20.62t-7.32-20.61q-7.3-7.7-18.71-7.7t-18.81,7.7q-7.41,7.69-7.41,20.61t7.41,20.62q7.41,7.68,18.81,7.69T623.14,1130.67Z"/><path class="cls-4" d="M722.89,1061.22a53.32,53.32,0,0,1,20.81-3.8v27.36c-3.3-.25-5.51-.38-6.65-.38q-12.74,0-19.95,7.13t-7.22,21.37v48.26H680.24V1058.94h28.31v13.49A33,33,0,0,1,722.89,1061.22Z"/><path class="cls-4" d="M805.26,1121.07,791,1135.13v26H761.37v-141H791V1100l43.32-41h35.34l-42.56,43.32,46.36,58.9H837.56Z"/><path class="cls-4" d="M892.85,1159.54q-12.17-3.12-19.38-7.88l9.88-21.28a62.08,62.08,0,0,0,16.53,7.13,69.51,69.51,0,0,0,19,2.75q18.81,0,18.81-9.31,0-4.37-5.13-6.27t-15.77-3.23a150.41,150.41,0,0,1-20.71-4.37,32.12,32.12,0,0,1-14.16-8.74q-6-6.27-6-17.86a28,28,0,0,1,5.6-17.19q5.61-7.51,16.34-11.69t25.37-4.18a99.66,99.66,0,0,1,21.56,2.37,60.69,60.69,0,0,1,17.77,6.56l-9.88,21.09a59,59,0,0,0-29.45-7.6q-9.5,0-14.25,2.66t-4.75,6.84q0,4.76,5.13,6.65t16.34,3.61a174.78,174.78,0,0,1,20.52,4.47,30.81,30.81,0,0,1,13.87,8.64Q966,1119,966,1130.19a27,27,0,0,1-5.7,16.91q-5.7,7.41-16.63,11.5t-25.93,4.08A98.84,98.84,0,0,1,892.85,1159.54Z"/><path class="cls-3" d="M129.58,919.83q-9.5,6.46-23.84,10.07a124.48,124.48,0,0,1-30.5,3.61q-20.14,0-34.2-5T19.76,914.42a32.12,32.12,0,0,1-7.22-20.62A31.4,31.4,0,0,1,18.43,875a35,35,0,0,1,16.15-12.16,30.28,30.28,0,0,1-12.06-11.4,31.08,31.08,0,0,1-4.28-16.15,32.36,32.36,0,0,1,6.65-19.76Q31.55,806.6,45,801.27T78.09,796a123.87,123.87,0,0,1,25.27,2.57,94,94,0,0,1,21.47,6.93L116.28,829a86.52,86.52,0,0,0-37-8.17q-14.82,0-22.32,4.47T49.4,837.37q0,7,5,10.74t15.29,3.7H106v24.32H67.83q-11.59,0-17.86,4a12.92,12.92,0,0,0-6.27,11.59q0,8,8.08,12.45t24.79,4.46a91.21,91.21,0,0,0,23.56-3.13,62.7,62.7,0,0,0,20-8.84Z"/><path class="cls-3" d="M153.14,929.62q-12.16-3.14-19.38-7.89l9.88-21.28a62.08,62.08,0,0,0,16.53,7.13,69.13,69.13,0,0,0,19,2.75Q198,910.33,198,901q0-4.37-5.13-6.27t-15.77-3.23a150.74,150.74,0,0,1-20.71-4.37,32,32,0,0,1-14.15-8.74q-6-6.27-6-17.86a27.94,27.94,0,0,1,5.61-17.19q5.59-7.5,16.34-11.69t25.36-4.18a99.83,99.83,0,0,1,21.57,2.38,60.45,60.45,0,0,1,17.76,6.55L213,857.51a59,59,0,0,0-29.45-7.6q-9.49,0-14.25,2.66t-4.75,6.84q0,4.76,5.13,6.65T186,869.67a176.85,176.85,0,0,1,20.52,4.47,30.81,30.81,0,0,1,13.87,8.64q5.9,6.27,5.89,17.48a27,27,0,0,1-5.7,16.91q-5.7,7.41-16.62,11.5T178,932.75A99.29,99.29,0,0,1,153.14,929.62Z"/><path class="cls-3" d="M306.09,926.29a30.39,30.39,0,0,1-10.73,4.85,53.88,53.88,0,0,1-13.21,1.61q-18.43,0-28.31-9.31T244,896.08V806.4H273.6v24.89h25.27v22.8H273.6V895.7q0,6.46,3.23,10t9.31,3.51a20.36,20.36,0,0,0,12.16-3.8Z"/><path class="cls-3" d="M365.46,831.29a53.32,53.32,0,0,1,20.81-3.8v27.36c-3.3-.25-5.51-.38-6.65-.38q-12.74,0-19.95,7.13T352.45,883v48.26H322.81V829h28.31V842.5A33,33,0,0,1,365.46,831.29Z"/><path class="cls-3" d="M506.73,829V931.23H478.42V919.45q-11,13.31-31.92,13.3a53,53,0,0,1-26.12-6.46A46.2,46.2,0,0,1,402,907.86q-6.65-12-6.65-27.74T402,852.38A46.27,46.27,0,0,1,420.38,834a53.12,53.12,0,0,1,26.12-6.46q19.58,0,30.59,12.35V829Zm-36.48,71.73q7.41-7.69,7.41-20.62t-7.41-20.61a24.78,24.78,0,0,0-18.62-7.7q-11.4,0-18.81,7.7t-7.41,20.61q0,12.93,7.41,20.62t18.81,7.69A24.77,24.77,0,0,0,470.25,900.74Z"/><path class="cls-3" d="M595.65,926.29a30.44,30.44,0,0,1-10.74,4.85,53.74,53.74,0,0,1-13.2,1.61q-18.44,0-28.31-9.31t-9.88-27.36V806.4h29.64v24.89h25.27v22.8H563.16V895.7q0,6.46,3.23,10t9.31,3.51a20.36,20.36,0,0,0,12.16-3.8Z"/><path class="cls-3" d="M674.78,906.63a34.27,34.27,0,0,0,11.5-7.51l15.77,17.1q-14.44,16.53-42.18,16.53-17.29,0-30.59-6.74a49.44,49.44,0,0,1-20.52-18.72,51.49,51.49,0,0,1-7.22-27.17,52.22,52.22,0,0,1,7.12-27.07,49.94,49.94,0,0,1,19.57-18.81,57.84,57.84,0,0,1,28-6.75,57.12,57.12,0,0,1,26.6,6.18A47.53,47.53,0,0,1,702,851.53q7.13,11.69,7.13,27.64L633.46,893.8a22.65,22.65,0,0,0,10.16,11.4q6.93,3.81,17,3.8A39.3,39.3,0,0,0,674.78,906.63ZM638,857.13q-7,7.23-7.41,20l49.78-9.69a22.41,22.41,0,0,0-8.55-12.73,25.62,25.62,0,0,0-15.58-4.75Q645,849.91,638,857.13Zm26-68.59H696L661.58,815.9H638.4Z"/><path class="cls-3" d="M834.48,829v85.12q0,28.13-14.63,41.8T777.1,969.61A106.74,106.74,0,0,1,749,966q-13.31-3.6-22-10.45l11.78-21.28a48.33,48.33,0,0,0,16.34,8.46,65,65,0,0,0,19.76,3.13q15.39,0,22.7-6.93t7.32-21v-4.37q-11.6,12.74-32.3,12.73a54.2,54.2,0,0,1-25.75-6.17,47,47,0,0,1-18.52-17.39q-6.84-11.21-6.84-25.84a48.63,48.63,0,0,1,6.84-25.84,47.08,47.08,0,0,1,18.52-17.38,54.21,54.21,0,0,1,25.75-6.18q22.22,0,33.81,14.63V829Zm-36.77,66q7.5-6.93,7.51-18.15t-7.51-18.14q-7.5-6.93-19.28-6.94t-19.38,6.94q-7.6,6.93-7.6,18.14t7.6,18.15q7.59,6.93,19.38,6.93T797.71,895Z"/><path class="cls-3" d="M863.54,810a16.09,16.09,0,0,1,0-23.56q5.13-4.74,13.3-4.75t13.3,4.56a14.62,14.62,0,0,1,5.13,11.4,16.14,16.14,0,0,1-5.13,12.26q-5.13,4.85-13.3,4.84T863.54,810ZM862,829h29.65V931.23H862Z"/><path class="cls-3" d="M1023,829V931.23H994.64V919.45q-11,13.31-31.92,13.3a53,53,0,0,1-26.12-6.46,46.27,46.27,0,0,1-18.34-18.43q-6.64-12-6.65-27.74t6.65-27.74A46.33,46.33,0,0,1,936.6,834a53.15,53.15,0,0,1,26.12-6.46q19.57,0,30.59,12.35V829Zm-36.48,71.73q7.41-7.69,7.41-20.62t-7.41-20.61a24.76,24.76,0,0,0-18.62-7.7q-11.4,0-18.81,7.7t-7.41,20.61q0,12.93,7.41,20.62t18.81,7.69A24.75,24.75,0,0,0,986.47,900.74Z"/><path class="cls-3" d="M1059.81,929.62q-12.16-3.14-19.38-7.89l9.88-21.28a62.08,62.08,0,0,0,16.53,7.13,69.13,69.13,0,0,0,19,2.75q18.81,0,18.81-9.31,0-4.37-5.13-6.27t-15.77-3.23a150.74,150.74,0,0,1-20.71-4.37,32,32,0,0,1-14.15-8.74q-6-6.27-6-17.86a27.94,27.94,0,0,1,5.61-17.19q5.6-7.5,16.34-11.69t25.36-4.18a99.83,99.83,0,0,1,21.57,2.38,60.45,60.45,0,0,1,17.76,6.55l-9.88,21.09a59,59,0,0,0-29.45-7.6q-9.49,0-14.25,2.66t-4.75,6.84q0,4.76,5.13,6.65t16.34,3.61a176.85,176.85,0,0,1,20.52,4.47,30.81,30.81,0,0,1,13.87,8.64q5.9,6.27,5.89,17.48a27,27,0,0,1-5.7,16.91q-5.7,7.41-16.62,11.5t-25.94,4.08A99.29,99.29,0,0,1,1059.81,929.62Z"/><path class="cls-4" d="M1255.51,933.51l-16-14.82q-19,14.82-44.46,14.82a69.34,69.34,0,0,1-26-4.65q-11.6-4.65-18.15-13a29.69,29.69,0,0,1-6.55-18.81,35.69,35.69,0,0,1,6.93-21.75q6.95-9.4,22.33-18a54.66,54.66,0,0,1-10.45-14.15,31.89,31.89,0,0,1-3.23-14,29.3,29.3,0,0,1,5.13-17.1,33.22,33.22,0,0,1,14.53-11.49,54.28,54.28,0,0,1,21.76-4.09q17.28,0,27.74,8.27t10.45,22.32a29,29,0,0,1-6.17,18.24q-6.18,8-19.86,15.39l24.32,22.61a86.49,86.49,0,0,0,6.65-20.71l23.75,7.41q-3.81,17.67-12.16,30.21l15.58,14.44Zm-33.44-31-32.11-30q-8.94,5.13-12.73,10.07a17.88,17.88,0,0,0-3.8,11.21q0,7.41,6.46,12t17.29,4.56A42.06,42.06,0,0,0,1222.07,902.54Zm-31.26-82.46a11.14,11.14,0,0,0-3.89,8.74,14.39,14.39,0,0,0,2.09,7.51q2.09,3.51,8.17,9.4,9.69-5.13,13.49-9.21a12.78,12.78,0,0,0,3.8-8.84,10.18,10.18,0,0,0-3.42-8q-3.42-3-9.69-3Q1194.7,816.66,1190.81,820.08Z"/><path class="cls-3" d="M208.75,579.8q13.13,13.79,13.11,39.81v81.7H191.08V620.56q0-14.05-7.31-21.19t-19.29-7.12q-13.09,0-20.9,7.5t-7.79,22.71v78.85H105V620.56q0-14.05-6.84-21.19t-18.62-7.12q-12.92,0-20.71,7.5t-7.79,22.71v78.85H20.27v-133H50.1v16.34a40.36,40.36,0,0,1,16.15-13.78A52.88,52.88,0,0,1,89.44,566q13.66,0,23.94,5a36.32,36.32,0,0,1,15.77,14.54,44.13,44.13,0,0,1,17.95-14.54,60,60,0,0,1,25-5Q195.65,566,208.75,579.8Z"/><path class="cls-3" d="M269.84,696.08a50.14,50.14,0,0,1-20-18.71,54.73,54.73,0,0,1,0-54.34,50.23,50.23,0,0,1,20-18.72,65.44,65.44,0,0,1,57.85,0A50.29,50.29,0,0,1,347.64,623a54.73,54.73,0,0,1,0,54.34,50.2,50.2,0,0,1-19.95,18.71,65.35,65.35,0,0,1-57.85,0Zm47.69-25.27q7.31-7.69,7.31-20.61t-7.31-20.62q-7.32-7.7-18.72-7.69T280,629.58q-7.41,7.7-7.41,20.62T280,670.81q7.41,7.7,18.81,7.7T317.53,670.81Z"/><path class="cls-3" d="M436.18,696.37a30.38,30.38,0,0,1-10.73,4.84,53.41,53.41,0,0,1-13.21,1.62q-18.42,0-28.31-9.31t-9.88-27.36V576.48h29.64v24.89H429v22.8H403.69v41.61q0,6.47,3.23,10t9.31,3.52a20.4,20.4,0,0,0,12.16-3.8Z"/><path class="cls-3" d="M454.42,580.09a16.09,16.09,0,0,1,0-23.56q5.13-4.75,13.3-4.75t13.3,4.56a14.62,14.62,0,0,1,5.13,11.4A16.12,16.12,0,0,1,481,580q-5.13,4.85-13.3,4.85T454.42,580.09Zm-1.52,19h29.64V701.31H452.9Z"/><path class="cls-3" d="M529.76,696.08a50.08,50.08,0,0,1-20.05-18.71,54.73,54.73,0,0,1,0-54.34,50.17,50.17,0,0,1,20.05-18.72,65.44,65.44,0,0,1,57.85,0A50.42,50.42,0,0,1,607.56,623a54.73,54.73,0,0,1,0,54.34,50.33,50.33,0,0,1-19.95,18.71,65.35,65.35,0,0,1-57.85,0Zm47.69-25.27q7.31-7.69,7.31-20.61t-7.31-20.62q-7.32-7.7-18.72-7.69t-18.81,7.69q-7.41,7.7-7.41,20.62t7.41,20.61q7.41,7.7,18.81,7.7T577.45,670.81Z"/><path class="cls-3" d="M727.35,609q11.7,11.4,11.69,33.82v58.52H709.4v-54q0-12.17-5.32-18.15t-15.39-6q-11.22,0-17.86,6.93t-6.65,20.62v50.54H634.54V599.09h28.31v12a39.28,39.28,0,0,1,14.63-10,51,51,0,0,1,19.19-3.51Q715.66,597.57,727.35,609Z"/><path class="cls-4" d="M870.14,703.59l-16-14.82q-19,14.82-44.46,14.82a69.14,69.14,0,0,1-26-4.66q-11.6-4.65-18.15-13A29.69,29.69,0,0,1,759,667.11a35.72,35.72,0,0,1,6.93-21.76q6.95-9.4,22.33-18a54.69,54.69,0,0,1-10.45-14.16,31.85,31.85,0,0,1-3.23-14,29.3,29.3,0,0,1,5.13-17.1,33.3,33.3,0,0,1,14.53-11.5A54.25,54.25,0,0,1,816,566.6q17.28,0,27.74,8.26t10.45,22.33A29,29,0,0,1,848,615.43q-6.16,8-19.85,15.39l24.32,22.61a86.49,86.49,0,0,0,6.65-20.71l23.75,7.41q-3.81,17.67-12.16,30.21l15.58,14.44Zm-33.44-31-32.11-30q-8.94,5.13-12.73,10.07a17.86,17.86,0,0,0-3.8,11.21q0,7.41,6.46,12t17.29,4.56A42.12,42.12,0,0,0,836.7,672.62Zm-31.26-82.46a11.12,11.12,0,0,0-3.89,8.74,14.35,14.35,0,0,0,2.09,7.5q2.08,3.52,8.17,9.41,9.69-5.13,13.49-9.22a12.76,12.76,0,0,0,3.8-8.83,10.18,10.18,0,0,0-3.42-8q-3.42-3-9.69-3Q809.33,586.74,805.44,590.16Z"/><path class="cls-3" d="M20.5,338.38H80.92q21.66,0,38.28,8.27A61.86,61.86,0,0,1,145,369.92q9.22,15,9.22,35t-9.22,35a61.81,61.81,0,0,1-25.84,23.28q-16.62,8.26-38.28,8.26H20.5ZM79.4,446.11q19.95,0,31.82-11.11t11.88-30.12q0-19-11.88-30.11T79.4,363.65H51.28v82.46Z"/><path class="cls-3" d="M241,446.78a34.42,34.42,0,0,0,11.5-7.51l15.77,17.1q-14.44,16.53-42.18,16.53-17.29,0-30.59-6.74A49.44,49.44,0,0,1,175,447.44a51.49,51.49,0,0,1-7.22-27.17,52.22,52.22,0,0,1,7.12-27.07,49.87,49.87,0,0,1,19.57-18.81,57.84,57.84,0,0,1,28-6.75,57.12,57.12,0,0,1,26.6,6.18,47.46,47.46,0,0,1,19.09,17.86q7.13,11.69,7.13,27.64L199.67,434a22.65,22.65,0,0,0,10.16,11.4q6.93,3.81,17,3.8A39.26,39.26,0,0,0,241,446.78Zm-36.76-49.5q-7,7.23-7.41,20l49.78-9.69a22.41,22.41,0,0,0-8.55-12.73,25.62,25.62,0,0,0-15.58-4.75Q211.25,390.06,204.23,397.28Z"/><path class="cls-3" d="M304.74,469.77q-12.17-3.13-19.38-7.89l9.88-21.28a62.08,62.08,0,0,0,16.53,7.13,69.51,69.51,0,0,0,19,2.75q18.81,0,18.81-9.31,0-4.37-5.13-6.27t-15.77-3.23A150.41,150.41,0,0,1,308,427.3a32.07,32.07,0,0,1-14.16-8.74q-6-6.27-6-17.86a27.93,27.93,0,0,1,5.6-17.19Q299,376,309.77,371.82t25.37-4.18A99.12,99.12,0,0,1,356.7,370a60.41,60.41,0,0,1,17.77,6.55l-9.88,21.09a59.07,59.07,0,0,0-29.45-7.6q-9.51,0-14.25,2.66t-4.75,6.84q0,4.76,5.13,6.65t16.34,3.61a174.78,174.78,0,0,1,20.52,4.47A30.81,30.81,0,0,1,372,422.93q5.88,6.27,5.89,17.48a27,27,0,0,1-5.7,16.91q-5.7,7.41-16.63,11.5t-25.93,4.08A99.24,99.24,0,0,1,304.74,469.77Z"/><path class="cls-3" d="M397.65,350.16a16.07,16.07,0,0,1,0-23.56q5.12-4.74,13.29-4.75t13.3,4.56a14.6,14.6,0,0,1,5.14,11.4,16.12,16.12,0,0,1-5.14,12.26q-5.13,4.85-13.3,4.84T397.65,350.16Zm-1.52,19h29.63V471.38H396.13Z"/><path class="cls-3" d="M558.76,369.16v85.12q0,28.13-14.63,41.8t-42.75,13.68a106.8,106.8,0,0,1-28.12-3.61q-13.29-3.61-22-10.45L463,474.42a48.52,48.52,0,0,0,16.34,8.46A65.06,65.06,0,0,0,499.1,486q15.39,0,22.71-6.93t7.31-21v-4.37q-11.58,12.74-32.3,12.73a54.31,54.31,0,0,1-25.74-6.17,47.06,47.06,0,0,1-18.53-17.39q-6.84-11.2-6.84-25.84a48.63,48.63,0,0,1,6.84-25.84,47,47,0,0,1,18.53-17.38,54.2,54.2,0,0,1,25.74-6.18q22.23,0,33.82,14.63V369.16Zm-36.76,66q7.5-6.94,7.5-18.15T522,398.9Q514.49,392,502.71,392t-19.38,6.94q-7.59,6.93-7.6,18.14t7.6,18.15q7.6,6.93,19.38,6.93T522,435.19Z"/><path class="cls-3" d="M679.13,379q11.68,11.4,11.68,33.82v58.52H661.17v-54q0-12.15-5.32-18.14t-15.39-6q-11.21,0-17.86,6.94T616,420.84v50.54H586.31V369.16h28.31v12a39.42,39.42,0,0,1,14.63-10,50.88,50.88,0,0,1,19.19-3.52Q667.45,367.64,679.13,379Z"/><path class="cls-4" d="M821.91,473.66l-16-14.82q-19,14.82-44.46,14.82a69.37,69.37,0,0,1-26-4.65q-11.6-4.67-18.14-13a29.7,29.7,0,0,1-6.56-18.81,35.63,35.63,0,0,1,6.94-21.75q6.93-9.4,22.32-18a55.06,55.06,0,0,1-10.45-14.15,32,32,0,0,1-3.23-14,29.3,29.3,0,0,1,5.13-17.1A33.25,33.25,0,0,1,746,340.76a54.06,54.06,0,0,1,21.75-4.09q17.29,0,27.74,8.27T806,367.26a29,29,0,0,1-6.17,18.24q-6.18,8-19.86,15.39l24.32,22.61a86.49,86.49,0,0,0,6.65-20.71l23.75,7.41q-3.79,17.67-12.16,30.21l15.58,14.44Zm-33.44-31-32.11-30q-8.93,5.13-12.73,10.07a17.94,17.94,0,0,0-3.8,11.21q0,7.41,6.46,12t17.29,4.56A42,42,0,0,0,788.47,442.69Zm-31.25-82.46a11.11,11.11,0,0,0-3.9,8.74,14.51,14.51,0,0,0,2.09,7.51q2.08,3.51,8.17,9.4,9.69-5.13,13.49-9.21a12.8,12.8,0,0,0,3.8-8.84,10.18,10.18,0,0,0-3.42-8q-3.42-3-9.69-3Q761.12,356.81,757.22,360.23Z"/></svg>